<svg xmlns="http://www.w3.org/2000/svg" width="1024" height="1024" viewBox="0 0 1024 1024">
  <path d="M354.0 546.0 L358.0 546.0 L361.9 546.1 L365.8 546.2 L369.7 546.3 L373.5 546.5 L377.2 546.7 L381.0 547.0 L384.6 547.3 L388.3 547.6 L391.9 548.0 L395.4 548.4 L398.9 548.8 L402.4 549.3 L405.8 549.8 L409.2 550.3 L412.5 550.9 L415.9 551.5 L419.1 552.1 L422.4 552.8 L425.6 553.5 L428.7 554.2 L431.9 555.0 L435.0 555.8 L438.0 556.6 L441.1 557.4 L444.1 558.3 L447.0 559.2 L450.0 560.1 L452.9 561.1 L455.7 562.1 L458.6 563.1 L461.4 564.1 L464.2 565.2 L466.9 566.2 L469.7 567.3 L472.4 568.5 L475.1 569.6 L477.7 570.8 L480.3 572.0 L482.9 573.2 L485.5 574.4 L488.1 575.7 L490.6 576.9 L493.1 578.2 L495.6 579.5 L498.1 580.9 L500.5 582.2 L503.0 583.6 L505.4 585.0 L507.8 586.4 L510.2 587.8 L512.5 589.2 L514.9 590.6 L517.2 592.1 L519.5 593.5 L521.8 595.0 L524.1 596.5 L526.3 598.0 L528.6 599.5 L530.8 601.1 L533.1 602.6 L535.3 604.1 L537.5 605.7 L539.7 607.2 L541.9 608.8 L544.1 610.4 L546.2 612.0 L548.4 613.6 L550.6 615.2 L552.7 616.8 L554.9 618.4 L557.0 620.0 L559.1 621.6 L561.3 623.2 L563.4 624.9 L565.5 626.5 L567.6 628.1 L569.8 629.7 L571.9 631.4 L574.0 633.0 L576.1 634.6 L578.2 636.3 L580.4 637.9 L582.5 639.5 L584.6 641.1 L586.7 642.8 L588.9 644.4 L591.0 646.0 L593.1 647.6 L595.3 649.2 L597.4 650.8 L599.6 652.4 L601.8 654.0 L603.9 655.6 L606.1 657.2 L608.3 658.8 L610.5 660.3 L612.7 661.9 L614.9 663.4 L617.2 664.9 L619.4 666.5 L621.7 668.0 L623.9 669.5 L626.2 671.0 L628.5 672.5 L630.8 673.9 L633.1 675.4 L635.5 676.8 L637.8 678.2 L640.2 679.6 L642.6 681.0 L645.0 682.4 L647.5 683.8 L649.9 685.1 L652.4 686.5 L654.9 687.8 L657.4 689.1 L659.9 690.3 L662.5 691.6 L665.1 692.8 L667.7 694.0 L670.3 695.2 L672.9 696.4 L675.6 697.5 L678.3 698.7 L681.1 699.8 L683.8 700.8 L686.6 701.9 L689.4 702.9 L692.3 703.9 L695.1 704.9 L698.0 705.9" fill="none" stroke="#FFFFFF" stroke-width="40" stroke-linecap="round"/>
</svg>
